<svg xmlns="http://www.w3.org/2000/svg" viewBox="0 0 1600 900" role="img" aria-label="Writing and content layout illustration">
  <defs>
    <linearGradient id="bg3" x1="0" x2="1" y1="0" y2="1">
      <stop offset="0" stop-color="#fff4ea"/>
      <stop offset="1" stop-color="#ffe5d2"/>
    </linearGradient>
  </defs>
  <rect width="1600" height="900" fill="url(#bg3)"/>
  <rect x="240" y="130" width="1120" height="640" rx="40" fill="#ffffff" opacity=".96"/>
  <rect x="325" y="210" width="950" height="90" rx="16" fill="#fce7d7"/>
  <rect x="325" y="340" width="540" height="340" rx="16" fill="#fff1e4"/>
  <rect x="905" y="340" width="370" height="160" rx="16" fill="#fff1e4"/>
  <rect x="905" y="520" width="370" height="160" rx="16" fill="#fff1e4"/>
  <rect x="370" y="250" width="470" height="18" rx="9" fill="#d18f63"/>
  <rect x="370" y="395" width="445" height="16" rx="8" fill="#dba983"/>
  <rect x="370" y="440" width="390" height="16" rx="8" fill="#dba983"/>
  <rect x="370" y="485" width="350" height="16" rx="8" fill="#dba983"/>
  <circle cx="1110" cy="420" r="43" fill="#c96f3d"/>
  <path d="M1092 420l13 12 24-26" fill="none" stroke="#fff7f1" stroke-width="10" stroke-linecap="round" stroke-linejoin="round"/>
  <rect x="960" y="570" width="260" height="24" rx="12" fill="#d18f63"/>
  <rect x="960" y="613" width="200" height="24" rx="12" fill="#d18f63"/>
</svg>
