<svg xmlns="http://www.w3.org/2000/svg" viewBox="0 0 1600 900" role="img" aria-label="Data dashboard illustration">
  <defs>
    <linearGradient id="bg2" x1="0" x2="1" y1="0" y2="1">
      <stop offset="0" stop-color="#fff6ee"/>
      <stop offset="1" stop-color="#ffe9d8"/>
    </linearGradient>
  </defs>
  <rect width="1600" height="900" fill="url(#bg2)"/>
  <rect x="270" y="180" width="1060" height="560" rx="36" fill="#ffffff" opacity=".95"/>
  <rect x="340" y="260" width="420" height="390" rx="22" fill="#fff3e8"/>
  <rect x="830" y="260" width="430" height="170" rx="22" fill="#fff3e8"/>
  <rect x="830" y="470" width="430" height="180" rx="22" fill="#fff3e8"/>
  <polyline points="390,560 480,470 560,500 650,390 730,350" fill="none" stroke="#c96f3d" stroke-width="24" stroke-linecap="round" stroke-linejoin="round"/>
  <rect x="880" y="320" width="90" height="70" rx="10" fill="#e8b28c"/>
  <rect x="990" y="290" width="90" height="100" rx="10" fill="#cf7f4f"/>
  <rect x="1100" y="250" width="90" height="140" rx="10" fill="#b86134"/>
  <circle cx="920" cy="560" r="58" fill="#f6c9a8"/>
  <path d="M920 525c28 0 45 18 45 39 0 24-21 41-45 41s-45-17-45-41c0-21 17-39 45-39z" fill="#c96f3d"/>
  <rect x="1000" y="532" width="205" height="22" rx="11" fill="#d18f63"/>
  <rect x="1000" y="572" width="145" height="22" rx="11" fill="#d18f63"/>
</svg>
