<svg xmlns="http://www.w3.org/2000/svg" viewBox="0 0 1600 900" role="img" aria-label="Trail landscape illustration">
  <defs>
    <linearGradient id="sky" x1="0" x2="0" y1="0" y2="1">
      <stop offset="0" stop-color="#ffe7d4"/>
      <stop offset="1" stop-color="#fff5ec"/>
    </linearGradient>
  </defs>
  <rect width="1600" height="900" fill="url(#sky)"/>
  <circle cx="1220" cy="180" r="82" fill="#ffd3b2"/>
  <path d="M0 620l250-190 240 170 190-140 220 160 230-180 280 200v260H0z" fill="#f1b48b"/>
  <path d="M0 690l290-220 280 195 205-150 280 185 320-230 225 175v255H0z" fill="#d18454"/>
  <path d="M0 745l300-120 280 98 230-84 280 97 240-90 270 97v157H0z" fill="#b45f34"/>
  <path d="M700 900c48-150 126-240 248-340 88-72 163-113 240-152-33 55-57 106-77 154-42 105-55 184-57 338z" fill="#f7c3a0" opacity=".8"/>
</svg>
